# xmcd CD database file
#
# Track frame offsets:
#	150
#	16278
#	32601
#	52074
#	78812
#	91948
#	103232
#	127721
#	141540
#	176426
#
# Disc length: 2611 seconds
#
# Revision: 0
# Processed by: cddbd v1.5.2PL0 Copyright (c) Steve Scherf et al.
# Submitted via: CDex 1.79
#
DISCID=790a310a
DTITLE=Lise Hanick - Prioritaire - Priority
DYEAR=2011
DGENRE=Blues
TTITLE0=Four chords
TTITLE1=Two mouths ago
TTITLE2=Trust the Sun
TTITLE3=Sleep
TTITLE4=Corrected
TTITLE5=Groove in the bag
TTITLE6=Le pays des sages
TTITLE7=Beware of the farewolf
TTITLE8=Travel's angels
TTITLE9=Free
EXTD=YEAR: 2011
EXTT0=
EXTT1=
EXTT2=
EXTT3=
EXTT4=
EXTT5=
EXTT6=
EXTT7=
EXTT8=
EXTT9=
PLAYORDER=
